<svg width="16" height="18" viewBox="0 0 16 18" fill="none" xmlns="http://www.w3.org/2000/svg">
<path d="M1.45441 6.75C1.45441 4.95979 2.14403 3.2429 3.37157 1.97703C4.5991 0.711158 6.264 0 8 0C9.736 0 11.4009 0.711158 12.6284 1.97703C13.856 3.2429 14.5456 4.95979 14.5456 6.75V9.606L15.9478 13.221C15.992 13.3348 16.0085 13.458 15.9959 13.5799C15.9832 13.7018 15.9417 13.8186 15.8751 13.9202C15.8085 14.0217 15.7188 14.1049 15.6138 14.1624C15.5088 14.2199 15.3918 14.25 15.2729 14.25H0.727119C0.60824 14.25 0.49118 14.2199 0.386186 14.1624C0.281193 14.1049 0.191467 14.0217 0.124864 13.9202C0.0582604 13.8186 0.0168101 13.7018 0.00414163 13.5799C-0.00852686 13.458 0.00797264 13.3348 0.0521957 13.221L1.45441 9.606V6.75ZM5.18103 15.75C5.34123 16.395 5.70543 16.9664 6.216 17.374C6.72658 17.7815 7.35436 18.0018 8 18C9.36148 18 10.4975 17.0475 10.819 15.75H5.18103Z" fill="#050505"/>
</svg>
