<svg width="8" height="12" viewBox="0 0 8 12" fill="none" xmlns="http://www.w3.org/2000/svg">
<path d="M0.810525 0.264138C0.641398 0.433317 0.546387 0.662742 0.546387 0.901961C0.546387 1.14118 0.641398 1.37061 0.810525 1.53978L5.27619 6.00545L0.810525 10.4711C0.646191 10.6413 0.555258 10.8691 0.557314 11.1057C0.559369 11.3422 0.654248 11.5685 0.821515 11.7358C0.988781 11.903 1.21505 11.9979 1.45159 12C1.68814 12.002 1.91602 11.9111 2.08617 11.7468L7.18966 6.64327C7.35878 6.47409 7.45379 6.24467 7.45379 6.00545C7.45379 5.76623 7.35878 5.5368 7.18966 5.36762L2.08617 0.264138C1.91699 0.0950107 1.68757 0 1.44835 0C1.20913 0 0.979704 0.0950107 0.810525 0.264138Z" fill="black"/>
</svg>
