<svg width="8" height="12" viewBox="0 0 8 12" fill="none" xmlns="http://www.w3.org/2000/svg">
<path d="M7.18966 0.264138C7.35879 0.433317 7.4538 0.662742 7.4538 0.901961C7.4538 1.14118 7.35879 1.37061 7.18966 1.53978L2.72399 6.00545L7.18966 10.4711C7.35399 10.6413 7.44492 10.8691 7.44287 11.1057C7.44081 11.3422 7.34594 11.5685 7.17867 11.7358C7.0114 11.903 6.78513 11.9979 6.54859 12C6.31205 12.002 6.08416 11.9111 5.91401 11.7468L0.810525 6.64327C0.641397 6.47409 0.546387 6.24467 0.546387 6.00545C0.546387 5.76623 0.641397 5.5368 0.810525 5.36762L5.91401 0.264138C6.08319 0.0950107 6.31262 0 6.55184 0C6.79105 0 7.02048 0.0950107 7.18966 0.264138Z" fill="black"/>
</svg>
